<svg version="1.1" id="Layer_1" xmlns="http://www.w3.org/2000/svg" xmlns:xlink="http://www.w3.org/1999/xlink" x="0px" y="0px"
	 width="100%" viewBox="0 0 711 429" enable-background="new 0 0 711 429" xml:space="preserve">
<path fill="#FFFEFE" opacity="1.000000" stroke="none" 
	d="
M215.000000,1.000000 
	C380.635284,1.000000 546.270569,1.000000 711.952942,1.000000 
	C711.952942,143.941513 711.952942,286.883057 711.952942,429.912292 
	C475.103394,429.912292 238.206741,429.912292 1.155043,429.912292 
	C1.155043,287.000122 1.155043,144.000076 1.155043,1.000000 
	C64.429779,1.000000 127.751007,1.000000 191.244080,1.289093 
	C182.900528,2.710770 174.293472,3.383101 165.885803,5.056907 
	C132.391891,11.724917 102.829514,26.712561 77.389160,49.294796 
	C53.223343,70.745689 34.403236,96.272507 21.799793,126.273132 
	C11.273708,151.328934 5.419397,177.437973 4.140455,204.444794 
	C3.021352,228.076355 5.671554,251.425095 11.965692,274.364777 
	C20.778761,306.485016 35.776997,335.304504 57.841499,360.170166 
	C77.214653,382.002869 99.836441,399.691528 126.853653,411.545715 
	C149.015579,421.269562 172.103745,427.041870 196.152359,427.746826 
	C209.486618,428.137726 223.057632,427.004181 236.238831,424.836426 
	C275.945801,418.306152 309.907562,400.138611 338.591125,371.974121 
	C342.045898,368.581848 344.469971,365.283539 341.674500,360.187317 
	C338.170837,353.799957 331.867279,348.827240 327.144653,350.172363 
	C324.302948,350.981781 321.838531,353.318848 319.364838,355.182190 
	C308.255768,363.550323 297.898590,373.176300 285.992065,380.173798 
	C258.381256,396.400818 228.319733,403.796509 196.019272,402.170990 
	C180.605621,401.395264 165.650146,398.749207 151.227341,393.788239 
	C122.227325,383.813263 97.640274,367.077942 77.327652,343.945312 
	C60.630611,324.930237 48.225300,303.467102 40.153271,279.632721 
	C31.739086,254.788055 27.974627,229.263657 29.804184,202.842300 
	C31.028460,185.162048 33.878887,167.902283 39.551434,151.230988 
	C50.276928,119.709343 67.306633,92.190056 92.473839,69.909790 
	C109.621368,54.729248 128.785095,43.071320 150.312988,35.459412 
	C174.198898,27.013756 198.848358,25.141222 223.954285,27.932209 
	C241.116257,29.840078 257.405670,34.670078 272.987762,42.001419 
	C300.482880,54.937840 323.015869,73.825874 340.952728,98.344276 
	C348.993835,109.335869 352.232788,109.562019 362.504272,100.948753 
	C367.523804,96.739594 368.171173,92.272766 364.361115,87.008560 
	C351.721588,69.544975 337.240265,53.741673 320.022400,40.762482 
	C293.010193,20.400108 262.803253,7.344378 229.071976,2.948951 
	C224.376389,2.337085 219.690414,1.651474 215.000000,1.000000 
M525.271057,301.247131 
	C525.010315,303.171356 524.749634,305.095581 524.482178,307.069733 
	C522.392151,306.950806 520.449524,306.840271 518.381897,306.722656 
	C518.236084,304.098541 518.101990,301.685577 517.868713,297.487274 
	C516.057739,299.392883 514.541321,300.240723 514.496643,301.160095 
	C514.255981,306.111206 514.300720,311.082703 514.463684,316.040039 
	C514.488953,316.808990 515.632385,317.541168 516.258789,318.290344 
	C516.895630,317.556519 517.991882,316.874603 518.081787,316.079041 
	C518.333435,313.850800 518.169373,311.575623 518.169373,309.134155 
	C520.619385,309.134155 522.532349,309.134155 524.177795,309.134155 
	C524.822144,310.913239 525.395630,312.496796 526.520935,314.729797 
	C531.030212,314.729797 535.539551,314.729797 540.048828,314.729797 
	C540.025879,314.180237 540.002991,313.630707 539.980103,313.081146 
	C536.417603,313.081146 532.855042,313.081146 529.031128,313.081146 
	C529.031128,309.514862 529.031128,306.467285 529.031128,303.270966 
	C532.521729,303.061615 535.892578,302.859467 539.263428,302.657288 
	C539.234192,302.154938 539.204895,301.652557 539.175598,301.150208 
	C534.789673,301.150208 530.403809,301.150208 525.271057,301.247131 
M387.599915,311.563446 
	C387.993073,312.078033 388.471130,312.548431 388.765869,313.114288 
	C390.970062,317.346497 394.667999,317.935852 398.561005,316.489594 
	C402.404694,315.061676 403.396729,311.552338 402.619904,307.809204 
	C401.753113,303.632538 398.911316,301.692352 394.611481,301.948883 
	C390.042480,302.221466 388.400513,305.140503 387.891724,309.197113 
	C387.765869,310.200409 387.319519,311.163513 386.133759,312.017334 
	C384.522522,311.930939 382.911285,311.844543 380.882385,311.735748 
	C380.882385,307.759369 380.882385,304.011566 380.882385,300.263733 
	C380.377991,300.008728 379.873566,299.753723 379.369171,299.498718 
	C378.616516,300.564911 377.240784,301.614532 377.211945,302.699982 
	C377.018341,309.980682 377.111206,317.269012 377.111206,324.778717 
	C377.876129,324.834320 379.343567,325.041626 379.368774,324.928223 
	C380.157013,321.383636 380.804657,317.807770 381.266479,315.343292 
	C383.556061,313.995758 385.230835,313.010071 387.599915,311.563446 
M578.923401,313.022797 
	C581.702515,313.022797 584.481628,313.022797 587.825073,313.022797 
	C587.825073,318.063141 587.825073,322.462860 587.825073,326.862610 
	C588.255859,327.041595 588.686646,327.220612 589.117493,327.399597 
	C589.782471,326.524750 591.007507,325.660828 591.024719,324.773346 
	C591.176208,316.980408 591.112488,309.183258 591.112488,301.132568 
	C589.706604,301.132568 588.269165,301.004059 588.240234,301.151489 
	C587.633179,304.250092 587.185120,307.379822 586.607239,311.146576 
	C583.934937,311.146576 580.974121,311.146576 577.157898,311.331604 
	C576.375854,311.126129 574.933044,310.967651 574.914612,310.707916 
	C574.741394,308.270203 574.811768,305.815186 574.811768,303.365173 
	C574.365906,303.116852 573.919983,302.868530 573.474121,302.620178 
	C572.679138,303.852875 571.170227,305.113068 571.216492,306.313324 
	C571.389526,310.798645 569.577576,314.253052 566.711365,317.426422 
	C565.648254,318.603485 564.835632,320.006897 563.908752,321.307098 
	C564.315552,321.823425 564.722412,322.339722 565.129211,322.856049 
	C569.054443,322.498047 569.649475,317.195312 574.064392,314.499176 
	C576.206116,317.299103 578.347839,320.099030 580.489563,322.898956 
	C580.942200,322.604584 581.394775,322.310211 581.847351,322.015808 
	C581.475647,321.046021 581.286377,319.942780 580.694702,319.133942 
	C579.425964,317.399597 577.938599,315.825684 576.622986,314.122589 
	C576.591553,314.081879 577.528259,313.293182 578.923401,313.022797 
M345.511261,311.784393 
	C348.657257,310.583618 350.649872,308.481293 349.823761,304.956665 
	C348.911743,301.065552 345.829437,299.991333 342.215973,299.947754 
	C338.839996,299.907043 335.775940,300.667877 334.690399,304.292877 
	C333.699646,307.601227 335.117676,309.932709 338.178162,311.654999 
	C339.410675,312.348633 340.028717,314.134186 341.398773,316.100800 
	C336.186188,316.351471 332.456573,316.530823 328.726929,316.710144 
	C328.757416,317.455414 328.787872,318.200653 328.818329,318.945923 
	C337.550262,318.945923 346.282227,318.945923 355.788055,319.123962 
	C358.777039,322.671967 370.770050,323.066956 374.068787,319.109619 
	C369.383789,319.109619 365.170715,319.109619 360.967377,319.109619 
	C360.967377,316.902649 360.967377,315.297607 360.967377,313.485046 
	C364.703461,312.947662 368.238403,312.439209 372.028259,311.894073 
	C371.707001,308.639709 371.437042,305.905090 371.200043,303.504486 
	C366.343506,303.504486 362.090851,303.504486 357.838226,303.504486 
	C357.816406,303.928650 357.794586,304.352814 357.772766,304.776978 
	C361.069397,304.948212 364.365997,305.119446 367.760437,305.295746 
	C367.760437,306.916504 367.760437,308.233673 367.760437,309.571045 
	C364.139587,310.100067 360.590729,310.618530 358.377350,310.941895 
	C356.851837,313.716461 355.933350,315.386963 354.149628,316.773590 
	C350.901672,316.516602 347.653748,316.259613 344.389954,315.177338 
	C344.526001,314.099243 344.662048,313.021179 345.511261,311.784393 
M478.079071,91.738678 
	C478.079071,108.824951 478.079071,125.911224 478.079071,142.931473 
	C466.822815,142.931473 456.422882,142.931473 445.454285,142.931473 
	C445.454285,124.772079 445.454285,107.029221 445.454285,89.323318 
	C437.138275,89.323318 429.409302,89.323318 421.724426,89.323318 
	C421.724426,140.415649 421.724426,191.118195 421.724426,241.886047 
	C429.782837,241.886047 437.394287,241.886047 445.619568,241.886047 
	C445.619568,216.571854 445.619568,191.510773 445.619568,166.376404 
	C456.774689,166.376404 467.307678,166.376404 478.862915,166.376404 
	C478.862915,178.623474 478.251038,190.474792 478.990448,202.241180 
	C480.523041,226.628952 497.631897,242.146805 522.051819,242.147675 
	C582.879761,242.149841 643.707764,242.151047 704.535706,242.136673 
	C706.448120,242.136230 708.360535,241.960236 710.330078,241.863251 
	C710.330078,234.343048 710.330078,227.412720 710.330078,219.932510 
	C682.146423,219.932510 654.241089,219.932510 626.091919,219.932510 
	C626.091919,210.484070 626.091919,201.590302 626.091919,192.096466 
	C640.111511,192.096466 653.844055,192.096466 667.716553,192.096466 
	C667.716553,184.451233 667.716553,177.411179 667.716553,169.787033 
	C639.621704,169.787033 611.896423,169.787033 584.292297,169.787033 
	C584.292297,162.275970 584.292297,155.361847 584.292297,147.956299 
	C611.562988,147.956299 638.473083,147.956299 665.863403,147.956299 
	C665.863403,145.998337 665.863464,144.538849 665.863464,143.079376 
	C665.863342,128.080704 665.878113,113.082001 665.857971,98.083351 
	C665.843140,87.059265 661.786133,82.951622 650.827148,82.942764 
	C621.996338,82.919449 593.165588,82.935089 564.334778,82.935204 
	C562.867737,82.935211 561.400757,82.935204 559.607910,82.935204 
	C559.607910,90.444443 559.607910,97.505821 559.607910,105.121063 
	C586.798706,105.121063 613.705566,105.121063 640.891968,105.121063 
	C640.891968,112.243469 640.891968,118.814362 640.891968,126.101913 
	C613.659241,126.101913 586.638977,126.101913 559.430176,126.101913 
	C559.430176,144.457458 559.122375,162.106583 559.560303,179.737183 
	C559.778564,188.523621 564.313721,192.089935 573.151428,192.137070 
	C582.269165,192.185684 591.387268,192.147858 600.767151,192.147858 
	C600.767151,201.630096 600.767151,210.516495 600.767151,219.701324 
	C598.846558,219.788147 597.220032,219.924835 595.593384,219.925766 
	C571.595520,219.939438 547.597595,219.941772 523.599731,219.931763 
	C513.568115,219.927582 506.173340,214.491302 504.141418,204.716827 
	C502.863586,198.569778 502.217468,192.187073 502.178131,185.904526 
	C501.985199,155.075119 502.090698,124.243843 502.090759,93.413231 
	C502.090759,91.495987 502.090729,89.578751 502.090729,87.236938 
	C494.487732,87.236938 487.678436,87.093781 480.888977,87.395844 
	C479.904083,87.439659 479.014069,89.616119 478.079071,91.738678 
M309.259155,211.834412 
	C309.904633,214.396591 310.550079,216.958755 311.245911,219.720749 
	C299.535248,219.720749 287.888794,220.223083 276.308258,219.565536 
	C266.637329,219.016434 260.549683,213.747604 259.244293,203.599243 
	C257.581421,190.671936 257.684784,177.517441 256.994659,163.823761 
	C268.956970,163.823761 279.692841,163.823761 290.522522,163.823761 
	C290.522522,156.018097 290.522522,148.814957 290.522522,141.002625 
	C279.393402,141.002625 268.659088,141.002625 257.613892,141.002625 
	C257.613892,138.566498 257.613892,136.746811 257.613892,134.927124 
	C257.613922,120.594757 257.632660,106.262329 257.592773,91.930077 
	C257.587128,89.903625 258.313660,87.255180 254.807602,87.250778 
	C247.688812,87.241837 240.569992,87.248116 233.194733,87.248116 
	C233.083084,89.284042 232.933807,90.743187 232.933228,92.202408 
	C232.920197,124.533562 232.876312,156.864853 232.973679,189.195724 
	C232.988663,194.174179 233.397568,199.188263 234.085358,204.121582 
	C237.343643,227.491959 253.310043,241.872696 276.850891,242.010529 
	C319.013000,242.257416 361.177368,242.124908 403.340790,242.131866 
	C404.458679,242.132050 405.576630,241.912491 406.828857,241.781326 
	C406.828857,234.446442 406.828857,227.405396 406.828857,219.936829 
	C404.660950,219.936829 402.858917,219.936844 401.056915,219.936829 
	C383.058136,219.936661 365.059326,219.939880 347.060547,219.935074 
	C336.408386,219.932220 333.048309,216.676651 332.957458,205.896942 
	C332.853516,193.565292 332.916595,181.232117 332.945923,168.899689 
	C332.948883,167.645065 333.218048,166.391068 333.406158,164.771439 
	C354.058899,164.771439 374.334198,164.771439 394.822174,164.771439 
	C394.822174,157.314240 394.822174,150.276810 394.822174,143.150864 
	C366.067169,143.150864 337.690033,143.150864 309.129608,143.150864 
	C309.129608,166.017303 309.129608,188.486664 309.259155,211.834412 
M192.417938,143.912979 
	C188.590973,143.019485 184.770447,141.385345 180.935989,141.351929 
	C154.773865,141.123947 128.608795,141.227509 102.444687,141.246048 
	C101.014168,141.247055 99.583786,141.444305 98.237373,141.543991 
	C98.237373,165.095215 98.237373,188.157700 98.237373,211.640610 
	C105.089767,211.640610 111.565674,211.512863 118.032974,211.693375 
	C121.371078,211.786530 122.320572,210.454514 122.255363,207.269394 
	C122.084824,198.940369 122.198372,190.605530 122.198524,182.273010 
	C122.198639,176.319305 122.198547,170.365616 122.198547,164.257202 
	C139.333054,164.257202 155.861801,164.257202 172.489105,164.257202 
	C172.489105,182.904724 172.489105,201.154861 172.489105,220.090698 
	C138.013412,220.090698 103.825027,220.090698 69.576202,220.090698 
	C69.576202,227.713089 69.576202,234.644058 69.576202,241.838928 
	C112.091545,241.838928 154.311951,241.838928 196.549072,241.838928 
	C196.770874,241.099319 197.029358,240.639420 197.029541,240.179413 
	C197.041122,211.182892 197.146545,182.185196 196.849075,153.191650 
	C196.818802,150.242233 194.354416,147.317810 192.417938,143.912979 
M253.000458,281.566650 
	C253.746475,280.836945 255.120773,280.123413 255.140076,279.374939 
	C255.309891,272.790253 255.238510,266.199402 255.238510,259.425354 
	C220.800842,259.425354 187.078339,259.425354 153.109299,259.425354 
	C152.986069,260.973785 152.794510,262.264740 152.793716,263.555817 
	C152.778519,288.038483 152.744415,312.521210 152.807251,337.003723 
	C152.835464,347.994659 156.914963,351.929077 168.009109,351.934387 
	C195.323105,351.947418 222.637100,351.941833 249.951096,351.927826 
	C251.567566,351.927002 253.183960,351.785736 255.030807,351.699036 
	C255.030807,331.053040 255.030807,310.821838 255.030807,290.395447 
	C246.897873,290.395447 239.036392,290.395447 230.636780,290.395447 
	C230.636780,303.523773 230.636780,316.260101 230.636780,328.899841 
	C212.553818,328.899841 195.019272,328.899841 177.424347,328.899841 
	C177.424347,313.027008 177.424347,297.620819 177.424347,281.625397 
	C202.527084,281.625397 227.299240,281.625397 253.000458,281.566650 
M594.031067,310.893524 
	C594.850708,321.979767 594.307495,319.785248 604.114868,319.560608 
	C605.567200,319.527374 607.011292,319.136414 608.417236,318.917480 
	C608.625488,303.687256 608.125488,301.678619 603.886597,301.461761 
	C603.886597,303.581177 603.886597,305.687378 603.886597,308.051910 
	C601.887573,308.244873 600.114563,308.416046 598.051392,308.615173 
	C597.786987,306.735291 597.735657,305.060822 597.263489,303.514862 
	C596.989990,302.619476 596.039185,301.931000 595.393188,301.149414 
	C594.811035,302.114471 593.830750,303.040527 593.731628,304.052887 
	C593.539429,306.014099 593.843079,308.023895 594.031067,310.893524 
M527.493652,332.344269 
	C536.034607,332.344269 544.575623,332.344269 553.055664,332.344269 
	C553.055664,328.255402 553.055664,324.837860 553.055664,321.195251 
	C544.148376,321.195251 535.563599,321.195251 526.950623,321.195251 
	C526.950623,324.781586 526.950623,328.221252 527.493652,332.344269 
M441.499390,320.954468 
	C437.069244,320.954468 432.639069,320.954468 428.169617,320.954468 
	C428.169617,324.290955 427.877747,327.134369 428.305847,329.864929 
	C428.490417,331.042267 430.176147,332.902802 431.160980,332.890808 
	C439.037628,332.795410 446.909698,332.325623 454.615234,331.978027 
	C454.615234,328.075928 454.615234,324.819183 454.615234,320.965088 
	C450.391907,320.965088 446.441528,320.965088 441.499390,320.954468 
M472.588501,318.815521 
	C468.678711,318.815521 464.768921,318.815521 460.649628,318.815521 
	C460.766449,316.678253 460.854126,315.074158 460.946777,313.379364 
	C464.728668,312.820312 468.253357,312.299255 472.015381,311.743164 
	C471.699982,308.590454 471.428070,305.872437 471.190216,303.494690 
	C466.330383,303.494690 462.082275,303.494690 457.834167,303.494690 
	C457.822418,303.912842 457.810638,304.330963 457.798889,304.749115 
	C461.074005,304.933228 464.349121,305.117340 467.948151,305.319641 
	C467.789307,306.948853 467.655579,308.320496 467.533936,309.568115 
	C463.709747,310.098938 460.330505,310.567993 456.760284,311.063568 
	C456.760284,314.068298 456.500580,316.594208 456.881958,319.019348 
	C457.045654,320.060425 458.513550,321.653564 459.436188,321.686859 
	C463.398682,321.829865 467.388031,321.587494 471.343689,321.224854 
	C472.040527,321.160980 472.623230,319.852264 472.588501,318.815521 
M481.437744,305.607300 
	C482.039368,297.983612 482.039368,297.983612 477.476990,298.804779 
	C477.476990,306.159424 477.381256,313.621124 477.581268,321.074890 
	C477.610901,322.180176 479.036133,323.247955 479.815674,324.333099 
	C480.333344,324.049835 480.851013,323.766541 481.368683,323.483276 
	C481.368683,317.846680 481.368683,312.210052 481.437744,305.607300 
M440.766357,315.534546 
	C441.583405,315.742920 442.400482,315.951263 443.217560,316.159637 
	C443.056122,315.325836 443.157074,314.285797 442.690308,313.691956 
	C439.819824,310.039978 435.122803,307.474091 435.885712,301.690216 
	C435.927734,301.371613 434.325165,300.409576 433.660828,300.552155 
	C433.072876,300.678314 432.505432,301.876221 432.314484,302.691284 
	C431.764313,305.039703 431.782532,307.587860 430.881866,309.770538 
	C429.777863,312.446045 427.969116,314.830750 426.129639,317.901031 
	C432.550720,318.875153 431.537994,312.152191 435.419861,310.589081 
	C436.920837,311.976349 438.590149,313.519226 440.766357,315.534546 
M503.054901,299.839966 
	C502.145264,300.719696 500.829498,301.438934 500.405945,302.510742 
	C499.349884,305.183136 498.890411,308.092102 497.824799,310.759613 
	C497.001495,312.820435 495.622559,314.659302 494.177917,317.132233 
	C500.713013,318.253815 499.341614,310.705505 503.233551,309.989227 
	C506.313934,311.286804 507.673737,315.318237 511.604370,315.084198 
	C508.535858,310.118469 503.080994,306.827240 503.054901,299.839966 
M615.327454,300.072540 
	C615.327454,307.955444 615.327454,315.838348 615.327454,323.985687 
	C616.302124,323.897766 618.075195,323.863403 618.084229,323.719055 
	C618.612549,315.244720 618.995117,306.761261 619.448975,297.053497 
	C617.398804,298.151245 616.413635,298.678741 615.327454,300.072540 
M412.191650,304.760468 
	C412.191650,302.960052 412.191650,301.159637 412.191650,299.359222 
	C411.731018,299.068970 411.270416,298.778717 410.809784,298.488464 
	C409.989136,299.488251 408.489685,300.466827 408.457642,301.491333 
	C408.245331,308.278046 408.347809,315.074615 408.347809,321.867981 
	C408.879395,322.130157 409.411011,322.392365 409.942596,322.654541 
	C410.692108,321.500275 412.019775,320.379150 412.088196,319.185822 
	C412.345093,314.702606 412.191223,310.195862 412.191650,304.760468 
M631.056396,317.457336 
	C633.144958,315.191101 635.233521,312.924835 637.294250,310.688782 
	C640.361633,312.880615 643.093506,314.832733 645.825378,316.784821 
	C646.146362,316.313843 646.467346,315.842865 646.788330,315.371887 
	C644.091919,311.036896 637.040771,309.294189 639.600586,301.148560 
	C637.472961,302.185638 635.600098,302.748840 635.636047,303.133820 
	C636.125916,308.379517 632.247620,311.144592 629.404785,314.443237 
	C627.713013,316.406281 628.461731,317.250610 631.056396,317.457336 
M508.047943,331.925201 
	C510.174591,331.779480 512.688232,332.285400 514.324280,331.313690 
	C516.135071,330.238159 518.646179,326.751801 518.230774,326.162109 
	C516.724304,324.023712 514.329468,321.815521 511.878143,321.204285 
	C508.359955,320.326965 504.281586,320.782928 502.878601,325.191925 
	C501.724030,328.820160 504.169342,330.649994 508.047943,331.925201 
M451.359253,299.317413 
	C450.268433,299.235077 449.177582,299.152710 448.054504,299.067932 
	C448.054504,305.684998 448.054504,311.938293 448.054504,318.191620 
	C448.506897,318.462280 448.959290,318.732971 449.411652,319.003632 
	C450.199707,317.845856 451.613159,316.716583 451.667419,315.525360 
	C451.900787,310.403290 451.734833,305.263062 451.359253,299.317413 
M336.978027,323.587341 
	C336.123230,322.590424 335.268402,321.593506 334.413605,320.596588 
	C333.357880,323.588074 333.131653,325.751648 333.451660,327.831146 
	C333.615875,328.898254 334.724365,330.641968 335.459473,330.669769 
	C341.541901,330.900024 347.636810,330.800079 353.727966,330.800079 
	C353.784332,330.258148 353.840698,329.716217 353.897095,329.174286 
	C352.656372,328.884399 351.426453,328.415405 350.172821,328.339905 
	C347.035309,328.150970 343.873322,327.923370 340.747162,328.121643 
	C337.835999,328.306244 336.895142,327.059418 336.978027,323.587341 
M544.105469,305.615631 
	C544.105835,308.946106 543.887329,312.299561 544.233215,315.593750 
	C544.344116,316.650299 545.946228,317.550323 546.866089,318.521942 
	C547.302795,318.173340 547.739441,317.824738 548.176147,317.476135 
	C548.176147,314.707916 548.176147,311.939697 548.176147,309.340576 
	C550.306763,309.034760 552.018982,308.788971 553.731201,308.543182 
	C553.677368,308.148956 553.623474,307.754730 553.569641,307.360474 
	C551.706909,307.078796 549.844177,306.797119 547.748657,306.480255 
	C547.748657,303.891724 547.748657,301.602448 547.748657,299.310547 
	C544.128662,299.427979 544.128662,299.427979 544.105469,305.615631 
M411.890839,329.991608 
	C408.120880,329.991608 404.350922,329.991608 400.091187,329.991608 
	C400.091187,328.023071 400.296326,326.369354 400.009766,324.805786 
	C399.852600,323.948303 398.865875,323.242828 398.253235,322.468811 
	C397.670990,323.263519 396.675842,324.014618 396.586517,324.861328 
	C396.350281,327.099579 396.506470,329.379242 396.506470,332.018768 
	C401.940826,332.018768 406.709808,332.069519 411.473541,331.935516 
	C411.920593,331.922913 412.334839,330.744904 411.890839,329.991608 
M632.572693,326.001007 
	C638.426453,326.001007 644.280212,326.001007 650.133911,326.001007 
	C650.091125,325.537140 650.048279,325.073242 650.005432,324.609375 
	C641.655396,324.609375 633.305359,324.609375 624.955261,324.609375 
	C624.953003,325.073242 624.950684,325.537140 624.948364,326.001007 
	C627.163208,326.001007 629.378052,326.001007 632.572693,326.001007 
z"/>
<path fill="#FFEDD5" opacity="1.000000" stroke="none" 
	d="
M214.531372,1.000000 
	C219.690414,1.651474 224.376389,2.337085 229.071976,2.948951 
	C262.803253,7.344378 293.010193,20.400108 320.022400,40.762482 
	C337.240265,53.741673 351.721588,69.544975 364.361115,87.008560 
	C368.171173,92.272766 367.523804,96.739594 362.504272,100.948753 
	C352.232788,109.562019 348.993835,109.335869 340.952728,98.344276 
	C323.015869,73.825874 300.482880,54.937840 272.987762,42.001419 
	C257.405670,34.670078 241.116257,29.840078 223.954285,27.932209 
	C198.848358,25.141222 174.198898,27.013756 150.312988,35.459412 
	C128.785095,43.071320 109.621368,54.729248 92.473839,69.909790 
	C67.306633,92.190056 50.276928,119.709343 39.551434,151.230988 
	C33.878887,167.902283 31.028460,185.162048 29.804184,202.842300 
	C27.974627,229.263657 31.739086,254.788055 40.153271,279.632721 
	C48.225300,303.467102 60.630611,324.930237 77.327652,343.945312 
	C97.640274,367.077942 122.227325,383.813263 151.227341,393.788239 
	C165.650146,398.749207 180.605621,401.395264 196.019272,402.170990 
	C228.319733,403.796509 258.381256,396.400818 285.992065,380.173798 
	C297.898590,373.176300 308.255768,363.550323 319.364838,355.182190 
	C321.838531,353.318848 324.302948,350.981781 327.144653,350.172363 
	C331.867279,348.827240 338.170837,353.799957 341.674500,360.187317 
	C344.469971,365.283539 342.045898,368.581848 338.591125,371.974121 
	C309.907562,400.138611 275.945801,418.306152 236.238831,424.836426 
	C223.057632,427.004181 209.486618,428.137726 196.152359,427.746826 
	C172.103745,427.041870 149.015579,421.269562 126.853653,411.545715 
	C99.836441,399.691528 77.214653,382.002869 57.841499,360.170166 
	C35.776997,335.304504 20.778761,306.485016 11.965692,274.364777 
	C5.671554,251.425095 3.021352,228.076355 4.140455,204.444794 
	C5.419397,177.437973 11.273708,151.328934 21.799793,126.273132 
	C34.403236,96.272507 53.223343,70.745689 77.389160,49.294796 
	C102.829514,26.712561 132.391891,11.724917 165.885803,5.056907 
	C174.293472,3.383101 182.900528,2.710770 191.707977,1.289093 
	C199.354248,1.000000 206.708496,1.000000 214.531372,1.000000 
z"/>
<path fill="#FB943E" opacity="1.000000" stroke="none" 
	d="
M478.079620,91.272186 
	C479.014069,89.616119 479.904083,87.439659 480.888977,87.395844 
	C487.678436,87.093781 494.487732,87.236938 502.090729,87.236938 
	C502.090729,89.578751 502.090759,91.495987 502.090759,93.413231 
	C502.090698,124.243843 501.985199,155.075119 502.178131,185.904526 
	C502.217468,192.187073 502.863586,198.569778 504.141418,204.716827 
	C506.173340,214.491302 513.568115,219.927582 523.599731,219.931763 
	C547.597595,219.941772 571.595520,219.939438 595.593384,219.925766 
	C597.220032,219.924835 598.846558,219.788147 600.767151,219.701324 
	C600.767151,210.516495 600.767151,201.630096 600.767151,192.147858 
	C591.387268,192.147858 582.269165,192.185684 573.151428,192.137070 
	C564.313721,192.089935 559.778564,188.523621 559.560303,179.737183 
	C559.122375,162.106583 559.430176,144.457458 559.430176,126.101913 
	C586.638977,126.101913 613.659241,126.101913 640.891968,126.101913 
	C640.891968,118.814362 640.891968,112.243469 640.891968,105.121063 
	C613.705566,105.121063 586.798706,105.121063 559.607910,105.121063 
	C559.607910,97.505821 559.607910,90.444443 559.607910,82.935204 
	C561.400757,82.935204 562.867737,82.935211 564.334778,82.935204 
	C593.165588,82.935089 621.996338,82.919449 650.827148,82.942764 
	C661.786133,82.951622 665.843140,87.059265 665.857971,98.083351 
	C665.878113,113.082001 665.863342,128.080704 665.863464,143.079376 
	C665.863464,144.538849 665.863403,145.998337 665.863403,147.956299 
	C638.473083,147.956299 611.562988,147.956299 584.292297,147.956299 
	C584.292297,155.361847 584.292297,162.275970 584.292297,169.787033 
	C611.896423,169.787033 639.621704,169.787033 667.716553,169.787033 
	C667.716553,177.411179 667.716553,184.451233 667.716553,192.096466 
	C653.844055,192.096466 640.111511,192.096466 626.091919,192.096466 
	C626.091919,201.590302 626.091919,210.484070 626.091919,219.932510 
	C654.241089,219.932510 682.146423,219.932510 710.330078,219.932510 
	C710.330078,227.412720 710.330078,234.343048 710.330078,241.863251 
	C708.360535,241.960236 706.448120,242.136230 704.535706,242.136673 
	C643.707764,242.151047 582.879761,242.149841 522.051819,242.147675 
	C497.631897,242.146805 480.523041,226.628952 478.990448,202.241180 
	C478.251038,190.474792 478.862915,178.623474 478.862915,166.376404 
	C467.307678,166.376404 456.774689,166.376404 445.619568,166.376404 
	C445.619568,191.510773 445.619568,216.571854 445.619568,241.886047 
	C437.394287,241.886047 429.782837,241.886047 421.724426,241.886047 
	C421.724426,191.118195 421.724426,140.415649 421.724426,89.323318 
	C429.409302,89.323318 437.138275,89.323318 445.454285,89.323318 
	C445.454285,107.029221 445.454285,124.772079 445.454285,142.931473 
	C456.422882,142.931473 466.822815,142.931473 478.079071,142.931473 
	C478.079071,125.911224 478.079071,108.824951 478.079620,91.272186 
z"/>
<path fill="#FB943E" opacity="1.000000" stroke="none" 
	d="
M309.194397,211.395218 
	C309.129608,188.486664 309.129608,166.017303 309.129608,143.150864 
	C337.690033,143.150864 366.067169,143.150864 394.822174,143.150864 
	C394.822174,150.276810 394.822174,157.314240 394.822174,164.771439 
	C374.334198,164.771439 354.058899,164.771439 333.406158,164.771439 
	C333.218048,166.391068 332.948883,167.645065 332.945923,168.899689 
	C332.916595,181.232117 332.853516,193.565292 332.957458,205.896942 
	C333.048309,216.676651 336.408386,219.932220 347.060547,219.935074 
	C365.059326,219.939880 383.058136,219.936661 401.056915,219.936829 
	C402.858917,219.936844 404.660950,219.936829 406.828857,219.936829 
	C406.828857,227.405396 406.828857,234.446442 406.828857,241.781326 
	C405.576630,241.912491 404.458679,242.132050 403.340790,242.131866 
	C361.177368,242.124908 319.013000,242.257416 276.850891,242.010529 
	C253.310043,241.872696 237.343643,227.491959 234.085358,204.121582 
	C233.397568,199.188263 232.988663,194.174179 232.973679,189.195724 
	C232.876312,156.864853 232.920197,124.533562 232.933228,92.202408 
	C232.933807,90.743187 233.083084,89.284042 233.194733,87.248116 
	C240.569992,87.248116 247.688812,87.241837 254.807602,87.250778 
	C258.313660,87.255180 257.587128,89.903625 257.592773,91.930077 
	C257.632660,106.262329 257.613922,120.594757 257.613892,134.927124 
	C257.613892,136.746811 257.613892,138.566498 257.613892,141.002625 
	C268.659088,141.002625 279.393402,141.002625 290.522522,141.002625 
	C290.522522,148.814957 290.522522,156.018097 290.522522,163.823761 
	C279.692841,163.823761 268.956970,163.823761 256.994659,163.823761 
	C257.684784,177.517441 257.581421,190.671936 259.244293,203.599243 
	C260.549683,213.747604 266.637329,219.016434 276.308258,219.565536 
	C287.888794,220.223083 299.535248,219.720749 311.245911,219.720749 
	C310.550079,216.958755 309.904633,214.396591 309.194397,211.395218 
z"/>
<path fill="#FB943E" opacity="1.000000" stroke="none" 
	d="
M192.718765,144.147385 
	C194.354416,147.317810 196.818802,150.242233 196.849075,153.191650 
	C197.146545,182.185196 197.041122,211.182892 197.029541,240.179413 
	C197.029358,240.639420 196.770874,241.099319 196.549072,241.838928 
	C154.311951,241.838928 112.091545,241.838928 69.576202,241.838928 
	C69.576202,234.644058 69.576202,227.713089 69.576202,220.090698 
	C103.825027,220.090698 138.013412,220.090698 172.489105,220.090698 
	C172.489105,201.154861 172.489105,182.904724 172.489105,164.257202 
	C155.861801,164.257202 139.333054,164.257202 122.198547,164.257202 
	C122.198547,170.365616 122.198639,176.319305 122.198524,182.273010 
	C122.198372,190.605530 122.084824,198.940369 122.255363,207.269394 
	C122.320572,210.454514 121.371078,211.786530 118.032974,211.693375 
	C111.565674,211.512863 105.089767,211.640610 98.237373,211.640610 
	C98.237373,188.157700 98.237373,165.095215 98.237373,141.543991 
	C99.583786,141.444305 101.014168,141.247055 102.444687,141.246048 
	C128.608795,141.227509 154.773865,141.123947 180.935989,141.351929 
	C184.770447,141.385345 188.590973,143.019485 192.718765,144.147385 
z"/>
<path fill="#FB943E" opacity="1.000000" stroke="none" 
	d="
M252.535934,281.596008 
	C227.299240,281.625397 202.527084,281.625397 177.424347,281.625397 
	C177.424347,297.620819 177.424347,313.027008 177.424347,328.899841 
	C195.019272,328.899841 212.553818,328.899841 230.636780,328.899841 
	C230.636780,316.260101 230.636780,303.523773 230.636780,290.395447 
	C239.036392,290.395447 246.897873,290.395447 255.030807,290.395447 
	C255.030807,310.821838 255.030807,331.053040 255.030807,351.699036 
	C253.183960,351.785736 251.567566,351.927002 249.951096,351.927826 
	C222.637100,351.941833 195.323105,351.947418 168.009109,351.934387 
	C156.914963,351.929077 152.835464,347.994659 152.807251,337.003723 
	C152.744415,312.521210 152.778519,288.038483 152.793716,263.555817 
	C152.794510,262.264740 152.986069,260.973785 153.109299,259.425354 
	C187.078339,259.425354 220.800842,259.425354 255.238510,259.425354 
	C255.238510,266.199402 255.309891,272.790253 255.140076,279.374939 
	C255.120773,280.123413 253.746475,280.836945 252.535934,281.596008 
z"/>
<path fill="#613225" opacity="1.000000" stroke="none" 
	d="
M593.986145,310.453552 
	C593.843079,308.023895 593.539429,306.014099 593.731628,304.052887 
	C593.830750,303.040527 594.811035,302.114471 595.393188,301.149414 
	C596.039185,301.931000 596.989990,302.619476 597.263489,303.514862 
	C597.735657,305.060822 597.786987,306.735291 598.051392,308.615173 
	C600.114563,308.416046 601.887573,308.244873 603.886597,308.051910 
	C603.886597,305.687378 603.886597,303.581177 603.886597,301.461761 
	C608.125488,301.678619 608.625488,303.687256 608.417236,318.917480 
	C607.011292,319.136414 605.567200,319.527374 604.114868,319.560608 
	C594.307495,319.785248 594.850708,321.979767 593.986145,310.453552 
M603.141174,310.942871 
	C601.428955,310.942871 599.716736,310.942871 597.801270,310.942871 
	C598.045227,313.455963 598.211426,315.168030 598.402466,317.136169 
	C600.871338,316.999115 602.756775,316.894440 605.223694,316.757507 
	C604.723145,314.532471 604.350098,312.874298 603.141174,310.942871 
z"/>
<path fill="#58271A" opacity="1.000000" stroke="none" 
	d="
M527.222168,332.002625 
	C526.950623,328.221252 526.950623,324.781586 526.950623,321.195251 
	C535.563599,321.195251 544.148376,321.195251 553.055664,321.195251 
	C553.055664,324.837860 553.055664,328.255402 553.055664,332.344269 
	C544.575623,332.344269 536.034607,332.344269 527.222168,332.002625 
M536.560425,323.027283 
	C534.644104,323.027283 532.727722,323.027283 530.878906,323.027283 
	C530.878906,325.675140 530.878906,327.621124 530.878906,329.586426 
	C537.298462,329.586426 543.496643,329.586426 549.919922,329.586426 
	C549.704895,327.226593 549.526855,325.272278 549.322266,323.027344 
	C545.161377,323.027344 541.348938,323.027344 536.560425,323.027283 
z"/>
<path fill="#5F2F23" opacity="1.000000" stroke="none" 
	d="
M344.405792,316.002625 
	C347.653748,316.259613 350.901672,316.516602 354.578796,317.230255 
	C355.010010,318.106598 355.012085,318.526245 355.014160,318.945923 
	C346.282227,318.945923 337.550262,318.945923 328.818329,318.945923 
	C328.787872,318.200653 328.757416,317.455414 328.726929,316.710144 
	C332.456573,316.530823 336.186188,316.351471 341.398773,316.100800 
	C340.028717,314.134186 339.410675,312.348633 338.178162,311.654999 
	C335.117676,309.932709 333.699646,307.601227 334.690399,304.292877 
	C335.775940,300.667877 338.839996,299.907043 342.215973,299.947754 
	C345.829437,299.991333 348.911743,301.065552 349.823761,304.956665 
	C350.649872,308.481293 348.657257,310.583618 344.842621,311.945007 
	C344.251251,313.404602 344.328522,314.703613 344.405792,316.002625 
M340.227325,302.631622 
	C339.647766,304.419525 339.068207,306.207428 338.488647,307.995361 
	C340.231689,308.502960 342.147827,309.686371 343.661591,309.298676 
	C344.817413,309.002686 345.463684,306.716919 346.336609,305.316284 
	C344.535095,304.306854 342.733582,303.297455 340.227325,302.631622 
z"/>
<path fill="#5D2C20" opacity="1.000000" stroke="none" 
	d="
M441.995270,320.959778 
	C446.441528,320.965088 450.391907,320.965088 454.615234,320.965088 
	C454.615234,324.819183 454.615234,328.075928 454.615234,331.978027 
	C446.909698,332.325623 439.037628,332.795410 431.160980,332.890808 
	C430.176147,332.902802 428.490417,331.042267 428.305847,329.864929 
	C427.877747,327.134369 428.169617,324.290955 428.169617,320.954468 
	C432.639069,320.954468 437.069244,320.954468 441.995270,320.959778 
M448.276642,329.960266 
	C453.862488,329.393890 449.991486,325.711761 450.957764,323.366241 
	C444.376831,323.366241 438.336639,323.366241 432.301147,323.366241 
	C432.301147,325.625092 432.301147,327.553925 432.301147,329.961273 
	C437.441284,329.961273 442.379730,329.961273 448.276642,329.960266 
z"/>
<path fill="#5F3023" opacity="1.000000" stroke="none" 
	d="
M472.923553,318.966980 
	C472.623230,319.852264 472.040527,321.160980 471.343689,321.224854 
	C467.388031,321.587494 463.398682,321.829865 459.436188,321.686859 
	C458.513550,321.653564 457.045654,320.060425 456.881958,319.019348 
	C456.500580,316.594208 456.760284,314.068298 456.760284,311.063568 
	C460.330505,310.567993 463.709747,310.098938 467.533936,309.568115 
	C467.655579,308.320496 467.789307,306.948853 467.948151,305.319641 
	C464.349121,305.117340 461.074005,304.933228 457.798889,304.749115 
	C457.810638,304.330963 457.822418,303.912842 457.834167,303.494690 
	C462.082275,303.494690 466.330383,303.494690 471.190216,303.494690 
	C471.428070,305.872437 471.699982,308.590454 472.015381,311.743164 
	C468.253357,312.299255 464.728668,312.820312 460.946777,313.379364 
	C460.854126,315.074158 460.766449,316.678253 460.649628,318.815521 
	C464.768921,318.815521 468.678711,318.815521 472.923553,318.966980 
z"/>
<path fill="#5F3023" opacity="1.000000" stroke="none" 
	d="
M355.401123,319.034943 
	C355.012085,318.526245 355.010010,318.106598 355.011414,317.372192 
	C355.933350,315.386963 356.851837,313.716461 358.377350,310.941895 
	C360.590729,310.618530 364.139587,310.100067 367.760437,309.571045 
	C367.760437,308.233673 367.760437,306.916504 367.760437,305.295746 
	C364.365997,305.119446 361.069397,304.948212 357.772766,304.776978 
	C357.794586,304.352814 357.816406,303.928650 357.838226,303.504486 
	C362.090851,303.504486 366.343506,303.504486 371.200043,303.504486 
	C371.437042,305.905090 371.707001,308.639709 372.028259,311.894073 
	C368.238403,312.439209 364.703461,312.947662 360.967377,313.485046 
	C360.967377,315.297607 360.967377,316.902649 360.967377,319.109619 
	C365.170715,319.109619 369.383789,319.109619 374.068787,319.109619 
	C370.770050,323.066956 358.777039,322.671967 355.401123,319.034943 
z"/>
<path fill="#67392E" opacity="1.000000" stroke="none" 
	d="
M578.013367,312.853394 
	C577.528259,313.293182 576.591553,314.081879 576.622986,314.122589 
	C577.938599,315.825684 579.425964,317.399597 580.694702,319.133942 
	C581.286377,319.942780 581.475647,321.046021 581.847351,322.015808 
	C581.394775,322.310211 580.942200,322.604584 580.489563,322.898956 
	C578.347839,320.099030 576.206116,317.299103 574.064392,314.499176 
	C569.649475,317.195312 569.054443,322.498047 565.129211,322.856049 
	C564.722412,322.339722 564.315552,321.823425 563.908752,321.307098 
	C564.835632,320.006897 565.648254,318.603485 566.711365,317.426422 
	C569.577576,314.253052 571.389526,310.798645 571.216492,306.313324 
	C571.170227,305.113068 572.679138,303.852875 573.474121,302.620178 
	C573.919983,302.868530 574.365906,303.116852 574.811768,303.365173 
	C574.811768,305.815186 574.741394,308.270203 574.914612,310.707916 
	C574.933044,310.967651 576.375854,311.126129 577.578125,311.523499 
	C578.003418,312.094727 578.008423,312.474060 578.013367,312.853394 
z"/>
<path fill="#5F3023" opacity="1.000000" stroke="none" 
	d="
M387.020477,312.145081 
	C387.319519,311.163513 387.765869,310.200409 387.891724,309.197113 
	C388.400513,305.140503 390.042480,302.221466 394.611481,301.948883 
	C398.911316,301.692352 401.753113,303.632538 402.619904,307.809204 
	C403.396729,311.552338 402.404694,315.061676 398.561005,316.489594 
	C394.667999,317.935852 390.970062,317.346497 388.765869,313.114288 
	C388.471130,312.548431 387.993073,312.078033 387.277649,311.827759 
	C386.955353,312.092041 387.020477,312.145081 387.020477,312.145081 
M396.840393,314.302429 
	C399.754913,311.823395 399.989502,308.748108 397.829010,305.958008 
	C397.133423,305.059753 393.968689,304.752289 393.151215,305.502136 
	C389.898865,308.485168 391.680908,313.440613 396.840393,314.302429 
z"/>
<path fill="#5A291C" opacity="1.000000" stroke="none" 
	d="
M578.468384,312.938080 
	C578.008423,312.474060 578.003418,312.094727 578.005859,311.431000 
	C580.974121,311.146576 583.934937,311.146576 586.607239,311.146576 
	C587.185120,307.379822 587.633179,304.250092 588.240234,301.151489 
	C588.269165,301.004059 589.706604,301.132568 591.112488,301.132568 
	C591.112488,309.183258 591.176208,316.980408 591.024719,324.773346 
	C591.007507,325.660828 589.782471,326.524750 589.117493,327.399597 
	C588.686646,327.220612 588.255859,327.041595 587.825073,326.862610 
	C587.825073,322.462860 587.825073,318.063141 587.825073,313.022797 
	C584.481628,313.022797 581.702515,313.022797 578.468384,312.938080 
z"/>
<path fill="#673A2F" opacity="1.000000" stroke="none" 
	d="
M525.969177,314.080322 
	C525.395630,312.496796 524.822144,310.913239 524.177795,309.134155 
	C522.532349,309.134155 520.619385,309.134155 518.169373,309.134155 
	C518.169373,311.575623 518.333435,313.850800 518.081787,316.079041 
	C517.991882,316.874603 516.895630,317.556519 516.258789,318.290344 
	C515.632385,317.541168 514.488953,316.808990 514.463684,316.040039 
	C514.300720,311.082703 514.255981,306.111206 514.496643,301.160095 
	C514.541321,300.240723 516.057739,299.392883 517.868713,297.487274 
	C518.101990,301.685577 518.236084,304.098541 518.381897,306.722656 
	C520.449524,306.840271 522.392151,306.950806 524.482178,307.069733 
	C524.749634,305.095581 525.010315,303.171356 525.633667,301.652832 
	C525.987244,306.065826 525.978210,310.073059 525.969177,314.080322 
z"/>
<path fill="#59281B" opacity="1.000000" stroke="none" 
	d="
M481.403198,306.090393 
	C481.368683,312.210052 481.368683,317.846680 481.368683,323.483276 
	C480.851013,323.766541 480.333344,324.049835 479.815674,324.333099 
	C479.036133,323.247955 477.610901,322.180176 477.581268,321.074890 
	C477.381256,313.621124 477.476990,306.159424 477.476990,298.804779 
	C482.039368,297.983612 482.039368,297.983612 481.403198,306.090393 
z"/>
<path fill="#65372B" opacity="1.000000" stroke="none" 
	d="
M440.512909,315.298340 
	C438.590149,313.519226 436.920837,311.976349 435.419861,310.589081 
	C431.537994,312.152191 432.550720,318.875153 426.129639,317.901031 
	C427.969116,314.830750 429.777863,312.446045 430.881866,309.770538 
	C431.782532,307.587860 431.764313,305.039703 432.314484,302.691284 
	C432.505432,301.876221 433.072876,300.678314 433.660828,300.552155 
	C434.325165,300.409576 435.927734,301.371613 435.885712,301.690216 
	C435.122803,307.474091 439.819824,310.039978 442.690308,313.691956 
	C443.157074,314.285797 443.056122,315.325836 443.217529,316.159637 
	C442.400482,315.951263 441.583405,315.742920 440.512909,315.298340 
z"/>
<path fill="#633529" opacity="1.000000" stroke="none" 
	d="
M503.378967,300.011780 
	C503.080994,306.827240 508.535858,310.118469 511.604370,315.084198 
	C507.673737,315.318237 506.313934,311.286804 503.233551,309.989227 
	C499.341614,310.705505 500.713013,318.253815 494.177917,317.132233 
	C495.622559,314.659302 497.001495,312.820435 497.824799,310.759613 
	C498.890411,308.092102 499.349884,305.183136 500.405945,302.510742 
	C500.829498,301.438934 502.145264,300.719696 503.378967,300.011780 
z"/>
<path fill="#64362A" opacity="1.000000" stroke="none" 
	d="
M386.930481,312.058228 
	C385.230835,313.010071 383.556061,313.995758 381.266479,315.343292 
	C380.804657,317.807770 380.157013,321.383636 379.368774,324.928223 
	C379.343567,325.041626 377.876129,324.834320 377.111206,324.778717 
	C377.111206,317.269012 377.018341,309.980682 377.211945,302.699982 
	C377.240784,301.614532 378.616516,300.564911 379.369171,299.498718 
	C379.873566,299.753723 380.377991,300.008728 380.882385,300.263733 
	C380.882385,304.011566 380.882385,307.759369 380.882385,311.735748 
	C382.911285,311.844543 384.522522,311.930939 386.577118,312.081207 
	C387.020477,312.145081 386.955353,312.092041 386.930481,312.058228 
z"/>
<path fill="#67392E" opacity="1.000000" stroke="none" 
	d="
M615.377930,299.639404 
	C616.413635,298.678741 617.398804,298.151245 619.448975,297.053497 
	C618.995117,306.761261 618.612549,315.244720 618.084229,323.719055 
	C618.075195,323.863403 616.302124,323.897766 615.327454,323.985687 
	C615.327454,315.838348 615.327454,307.955444 615.377930,299.639404 
z"/>
<path fill="#6B3F34" opacity="1.000000" stroke="none" 
	d="
M412.191467,305.229187 
	C412.191223,310.195862 412.345093,314.702606 412.088196,319.185822 
	C412.019775,320.379150 410.692108,321.500275 409.942596,322.654541 
	C409.411011,322.392365 408.879395,322.130157 408.347809,321.867981 
	C408.347809,315.074615 408.245331,308.278046 408.457642,301.491333 
	C408.489685,300.466827 409.989136,299.488251 410.809784,298.488464 
	C411.270416,298.778717 411.731018,299.068970 412.191650,299.359222 
	C412.191650,301.159637 412.191650,302.960052 412.191467,305.229187 
z"/>
<path fill="#603024" opacity="1.000000" stroke="none" 
	d="
M630.776367,317.653503 
	C628.461731,317.250610 627.713013,316.406281 629.404785,314.443237 
	C632.247620,311.144592 636.125916,308.379517 635.636047,303.133820 
	C635.600098,302.748840 637.472961,302.185638 639.600586,301.148560 
	C637.040771,309.294189 644.091919,311.036896 646.788330,315.371887 
	C646.467346,315.842865 646.146362,316.313843 645.825378,316.784821 
	C643.093506,314.832733 640.361633,312.880615 637.294250,310.688782 
	C635.233521,312.924835 633.144958,315.191101 630.776367,317.653503 
z"/>
<path fill="#562417" opacity="1.000000" stroke="none" 
	d="
M507.650757,331.848694 
	C504.169342,330.649994 501.724030,328.820160 502.878601,325.191925 
	C504.281586,320.782928 508.359955,320.326965 511.878143,321.204285 
	C514.329468,321.815521 516.724304,324.023712 518.230774,326.162109 
	C518.646179,326.751801 516.135071,330.238159 514.324280,331.313690 
	C512.688232,332.285400 510.174591,331.779480 507.650757,331.848694 
M506.375244,327.244537 
	C508.413116,328.014526 510.410614,329.076019 512.514771,329.367676 
	C513.106323,329.449677 514.854126,326.975494 514.580994,326.195923 
	C514.136414,324.926666 512.205322,323.062531 511.364319,323.275696 
	C509.510559,323.745453 507.945435,325.354309 506.375244,327.244537 
z"/>
<path fill="#6D4135" opacity="1.000000" stroke="none" 
	d="
M451.536804,299.723419 
	C451.734833,305.263062 451.900787,310.403290 451.667419,315.525360 
	C451.613159,316.716583 450.199707,317.845856 449.411652,319.003632 
	C448.959290,318.732971 448.506897,318.462280 448.054504,318.191620 
	C448.054504,311.938293 448.054504,305.684998 448.054504,299.067932 
	C449.177582,299.152710 450.268433,299.235077 451.536804,299.723419 
z"/>
<path fill="#6C4135" opacity="1.000000" stroke="none" 
	d="
M337.025085,324.010010 
	C336.895142,327.059418 337.835999,328.306244 340.747162,328.121643 
	C343.873322,327.923370 347.035309,328.150970 350.172821,328.339905 
	C351.426453,328.415405 352.656372,328.884399 353.897095,329.174286 
	C353.840698,329.716217 353.784332,330.258148 353.727966,330.800079 
	C347.636810,330.800079 341.541901,330.900024 335.459473,330.669769 
	C334.724365,330.641968 333.615875,328.898254 333.451660,327.831146 
	C333.131653,325.751648 333.357880,323.588074 334.413605,320.596588 
	C335.268402,321.593506 336.123230,322.590424 337.025085,324.010010 
z"/>
<path fill="#65372B" opacity="1.000000" stroke="none" 
	d="
M544.105591,305.141418 
	C544.128662,299.427979 544.128662,299.427979 547.748657,299.310547 
	C547.748657,301.602448 547.748657,303.891724 547.748657,306.480255 
	C549.844177,306.797119 551.706909,307.078796 553.569641,307.360474 
	C553.623474,307.754730 553.677368,308.148956 553.731201,308.543182 
	C552.018982,308.788971 550.306763,309.034760 548.176147,309.340576 
	C548.176147,311.939697 548.176147,314.707916 548.176147,317.476135 
	C547.739441,317.824738 547.302795,318.173340 546.866089,318.521942 
	C545.946228,317.550323 544.344116,316.650299 544.233215,315.593750 
	C543.887329,312.299561 544.105835,308.946106 544.105591,305.141418 
z"/>
<path fill="#572518" opacity="1.000000" stroke="none" 
	d="
M526.245056,314.405060 
	C525.978210,310.073059 525.987244,306.065826 526.007080,301.604370 
	C530.403809,301.150208 534.789673,301.150208 539.175598,301.150208 
	C539.204895,301.652557 539.234192,302.154938 539.263428,302.657288 
	C535.892578,302.859467 532.521729,303.061615 529.031128,303.270966 
	C529.031128,306.467285 529.031128,309.514862 529.031128,313.081146 
	C532.855042,313.081146 536.417603,313.081146 539.980103,313.081146 
	C540.002991,313.630707 540.025879,314.180237 540.048828,314.729797 
	C535.539551,314.729797 531.030212,314.729797 526.245056,314.405060 
z"/>
<path fill="#562417" opacity="1.000000" stroke="none" 
	d="
M412.327576,330.049805 
	C412.334839,330.744904 411.920593,331.922913 411.473541,331.935516 
	C406.709808,332.069519 401.940826,332.018768 396.506470,332.018768 
	C396.506470,329.379242 396.350281,327.099579 396.586517,324.861328 
	C396.675842,324.014618 397.670990,323.263519 398.253235,322.468811 
	C398.865875,323.242828 399.852600,323.948303 400.009766,324.805786 
	C400.296326,326.369354 400.091187,328.023071 400.091187,329.991608 
	C404.350922,329.991608 408.120880,329.991608 412.327576,330.049805 
z"/>
<path fill="#4C1709" opacity="1.000000" stroke="none" 
	d="
M632.082764,326.001007 
	C629.378052,326.001007 627.163208,326.001007 624.948364,326.001007 
	C624.950684,325.537140 624.953003,325.073242 624.955261,324.609375 
	C633.305359,324.609375 641.655396,324.609375 650.005432,324.609375 
	C650.048279,325.073242 650.091125,325.537140 650.133911,326.001007 
	C644.280212,326.001007 638.426453,326.001007 632.082764,326.001007 
z"/>
<path fill="#5F3023" opacity="1.000000" stroke="none" 
	d="
M344.397888,315.589966 
	C344.328522,314.703613 344.251251,313.404602 344.486053,312.024353 
	C344.662048,313.021179 344.526001,314.099243 344.397888,315.589966 
z"/>
<path fill="#F2EFEE" opacity="1.000000" stroke="none" 
	d="
M603.559143,311.079468 
	C604.350098,312.874298 604.723145,314.532471 605.223694,316.757507 
	C602.756775,316.894440 600.871338,316.999115 598.402466,317.136169 
	C598.211426,315.168030 598.045227,313.455963 597.801270,310.942871 
	C599.716736,310.942871 601.428955,310.942871 603.559143,311.079468 
z"/>
<path fill="#FCFBFA" opacity="1.000000" stroke="none" 
	d="
M537.048462,323.027313 
	C541.348938,323.027344 545.161377,323.027344 549.322266,323.027344 
	C549.526855,325.272278 549.704895,327.226593 549.919922,329.586426 
	C543.496643,329.586426 537.298462,329.586426 530.878906,329.586426 
	C530.878906,327.621124 530.878906,325.675140 530.878906,323.027283 
	C532.727722,323.027283 534.644104,323.027283 537.048462,323.027313 
z"/>
<path fill="#F1EDEC" opacity="1.000000" stroke="none" 
	d="
M340.579712,302.459839 
	C342.733582,303.297455 344.535095,304.306854 346.336609,305.316284 
	C345.463684,306.716919 344.817413,309.002686 343.661591,309.298676 
	C342.147827,309.686371 340.231689,308.502960 338.488647,307.995361 
	C339.068207,306.207428 339.647766,304.419525 340.579712,302.459839 
z"/>
<path fill="#FCFBFA" opacity="1.000000" stroke="none" 
	d="
M447.797424,329.960754 
	C442.379730,329.961273 437.441284,329.961273 432.301147,329.961273 
	C432.301147,327.553925 432.301147,325.625092 432.301147,323.366241 
	C438.336639,323.366241 444.376831,323.366241 450.957764,323.366241 
	C449.991486,325.711761 453.862488,329.393890 447.797424,329.960754 
z"/>
<path fill="#F2EEED" opacity="1.000000" stroke="none" 
	d="
M396.507660,314.507202 
	C391.680908,313.440613 389.898865,308.485168 393.151215,305.502136 
	C393.968689,304.752289 397.133423,305.059753 397.829010,305.958008 
	C399.989502,308.748108 399.754913,311.823395 396.507660,314.507202 
z"/>
<path fill="#ECE7E6" opacity="1.000000" stroke="none" 
	d="
M506.318878,326.871429 
	C507.945435,325.354309 509.510559,323.745453 511.364319,323.275696 
	C512.205322,323.062531 514.136414,324.926666 514.580994,326.195923 
	C514.854126,326.975494 513.106323,329.449677 512.514771,329.367676 
	C510.410614,329.076019 508.413116,328.014526 506.318878,326.871429 
z"/>
</svg>